# xmcd
#
# Track frame offsets: 
#        150
#        35959
#        61963
#        91633
#        125440
#        152552
#        171191
#        197641
#        224283
#        235678
#
# Disc length: 3473 seconds
#
# Revision: 0
# Processed by: cddbd v1.5.1PL0 Copyright (c) Steve Scherf et al.
# Submitted via: ExactAudioCopy v0.95b1
#
DISCID=810d8f0a
DTITLE=Jeff Black - Cafe Milano
DYEAR=1999
DGENRE=Country
TTITLE0=Just About Right
TTITLE1=One Last Day to Live
TTITLE2=Street
TTITLE3=Noah's Ark
TTITLE4=Honey and Salt
TTITLE5=Rescue Station
TTITLE6=King of the World
TTITLE7=Uniontown
TTITLE8=<partial track>
TTITLE9=Birmingham Road
EXTD=
EXTT0=
EXTT1=
EXTT2=Street
EXTT3=
EXTT4=
EXTT5=
EXTT6=
EXTT7=
EXTT8=
EXTT9=
PLAYORDER=
